<?xml version="1.0" encoding="UTF-8"?>
<svg xmlns="http://www.w3.org/2000/svg" xmlns:xlink="http://www.w3.org/1999/xlink" width="500px" height="361px" viewBox="0 0 499 361" version="1.1">
<g id="surface1">
<path style=" stroke:none;fill-rule:nonzero;fill:rgb(98.431373%,98.431373%,98.823529%);fill-opacity:1;" d="M 0.976562 0 C 165 0 329.03125 0 498.023438 0 C 498.023438 119.132812 498.023438 238.261719 498.023438 361 C 334 361 169.96875 361 0.976562 361 C 0.976562 241.867188 0.976562 122.738281 0.976562 0 Z M 0.976562 0 "/>
<path style=" stroke:none;fill-rule:nonzero;fill:rgb(25.490198%,26.274511%,50.980395%);fill-opacity:1;" d="M 240.292969 66.542969 C 264.089844 77.871094 286.792969 90.820312 308.820312 105.289062 C 363.4375 139.683594 417.589844 138.988281 480.886719 137.523438 C 480.886719 150.285156 480.886719 163.050781 480.886719 176.199219 C 477.855469 176.019531 474.824219 175.835938 471.710938 175.644531 C 384.078125 171.496094 330.09375 188.777344 256.359375 234.238281 C 235.535156 246.25 218.570312 250.488281 194.601562 251.945312 C 189.621094 252.265625 184.644531 252.59375 179.519531 252.921875 C 175.75 253.132812 171.972656 253.339844 168.089844 253.5625 C 190.011719 290.226562 190.011719 290.226562 223.324219 314.097656 C 233.824219 314.96875 243.347656 315.082031 253.785156 313.726562 C 253.785156 306.636719 253.785156 299.546875 253.785156 292.238281 C 246.714844 292.238281 239.648438 292.238281 232.359375 292.238281 C 232.359375 279.476562 232.359375 266.710938 232.359375 253.5625 C 252.15625 253.5625 271.953125 253.5625 292.351562 253.5625 C 292.351562 286.179688 292.351562 318.792969 292.351562 352.402344 C 198.195312 358.917969 198.195312 358.917969 178.765625 342.277344 C 168.050781 328.992188 159.441406 315.632812 150.949219 300.835938 C 145.171875 293.222656 139.285156 285.691406 133.269531 278.273438 C 129.160156 272.90625 125.046875 267.539062 120.949219 262.152344 C 119.542969 272.082031 118.125 282.007812 116.664062 292.238281 C 102.523438 292.238281 88.386719 292.238281 73.820312 292.238281 C 72.402344 261.039062 70.988281 229.839844 69.53125 197.6875 C 61.050781 194.851562 52.566406 192.015625 43.828125 189.097656 C 31.507812 184.800781 31.507812 184.800781 22.402344 176.199219 C 21.511719 165.964844 21.511719 165.964844 21.828125 154.179688 C 21.914062 150.269531 21.996094 146.351562 22.082031 142.328125 C 22.1875 139.324219 22.285156 136.320312 22.402344 133.226562 C 37.109375 125.046875 51.84375 116.914062 66.585938 108.78125 C 70.691406 106.5 74.792969 104.222656 79.011719 101.875 C 185.503906 43.257812 185.503906 43.257812 240.292969 66.542969 Z M 240.292969 66.542969 "/>
<path style=" stroke:none;fill-rule:nonzero;fill:rgb(25.882354%,26.666668%,51.372552%);fill-opacity:1;" d="M 302.648438 34.246094 C 368.539062 71.101562 368.539062 71.101562 442.320312 77.359375 C 442.320312 90.121094 442.320312 102.886719 442.320312 116.035156 C 383.921875 124.429688 347.507812 107.683594 297.871094 77.421875 C 254.121094 51.15625 205.589844 35.574219 154.796875 47.304688 C 129.289062 56.0625 105.636719 69.089844 81.851562 81.699219 C 70.84375 87.527344 59.753906 93.207031 48.648438 98.847656 C 45.386719 100.53125 42.128906 102.21875 38.769531 103.949219 C 30.964844 107.4375 30.964844 107.4375 22.402344 107.4375 C 22.402344 93.261719 22.402344 79.074219 22.402344 64.464844 C 37.894531 56.070312 53.445312 47.769531 69 39.484375 C 73.339844 37.128906 77.679688 34.78125 82.15625 32.355469 C 161.136719 -9.535156 224.511719 -9.199219 302.648438 34.246094 Z M 302.648438 34.246094 "/>
<path style=" stroke:none;fill-rule:nonzero;fill:rgb(94.117647%,94.117647%,96.078432%);fill-opacity:1;" d="M 125.238281 124.628906 C 124.878906 127.53125 124.523438 130.4375 124.148438 133.429688 C 123.714844 137.257812 123.273438 141.09375 122.824219 145.046875 C 122.382812 148.835938 121.933594 152.625 121.46875 156.527344 C 120.972656 167.105469 122.085938 174.769531 125.238281 184.800781 C 104.550781 178.722656 87.890625 170.058594 69.53125 159.011719 C 69.53125 156.175781 69.53125 153.339844 69.53125 150.414062 C 77.199219 146.101562 84.875 141.808594 92.566406 137.523438 C 96.835938 135.132812 101.117188 132.738281 105.515625 130.269531 C 116.664062 124.628906 116.664062 124.628906 125.238281 124.628906 Z M 125.238281 124.628906 "/>
<path style=" stroke:none;fill-rule:nonzero;fill:rgb(94.117647%,94.117647%,96.078432%);fill-opacity:1;" d="M 262.351562 124.628906 C 268.011719 126.050781 273.667969 127.46875 279.492188 128.925781 C 279.492188 131.761719 279.492188 134.605469 279.492188 137.523438 C 292.222656 141.777344 304.945312 146.03125 318.058594 150.414062 C 318.058594 153.25 318.058594 156.09375 318.058594 159.011719 C 290.488281 171.773438 290.488281 171.773438 262.351562 184.800781 C 262.351562 164.941406 262.351562 145.085938 262.351562 124.628906 Z M 262.351562 124.628906 "/>
</g>
</svg>
